<mxfile host="app.diagrams.net" modified="2023-11-12T14:01:47.451Z" agent="Mozilla/5.0 (Windows NT 10.0; Win64; x64) AppleWebKit/537.36 (KHTML, like Gecko) Chrome/119.0.0.0 Safari/537.36" version="22.1.0" etag="TLVScs_7wXMLBDKLUMMZ" type="github">
  <diagram name="PÃ¡gina-1" id="YAM_jbvWTFPn9hQ-5vM_">
    <mxGraphModel>
      <root>
        <mxCell id="0" />
        <mxCell id="1" parent="0" />
      </root>
    </mxGraphModel>
  </diagram>
</mxfile>
